<?xml version="1.0" standalone="no"?>
<!DOCTYPE svg PUBLIC "-//W3C//DTD SVG 20010904//EN"
 "http://www.w3.org/TR/2001/REC-SVG-20010904/DTD/svg10.dtd">
<svg version="1.0" xmlns="http://www.w3.org/2000/svg"
 width="500.000000pt" height="500.000000pt" viewBox="0 0 500.000000 500.000000"
 preserveAspectRatio="xMidYMid meet">
<metadata>
Created by potrace 1.11, written by Peter Selinger 2001-2013
</metadata>
<g transform="translate(0.000000,500.000000) scale(0.100000,-0.100000)"
fill="#000000" stroke="none">
<path d="M0 2500 l0 -2500 2500 0 2500 0 0 2500 0 2500 -2500 0 -2500 0 0
-2500z m2500 1330 c-6 -11 -13 -20 -16 -20 -2 0 0 9 6 20 6 11 13 20 16 20 2
0 0 -9 -6 -20z m133 6 c4 -10 1 -13 -8 -9 -8 3 -12 9 -9 14 7 12 11 11 17 -5z
m27 -46 c6 -11 8 -20 6 -20 -3 0 -10 9 -16 20 -6 11 -8 20 -6 20 3 0 10 -9 16
-20z m-200 -30 c-6 -11 -13 -20 -16 -20 -2 0 0 9 6 20 6 11 13 20 16 20 2 0 0
-9 -6 -20z m440 -587 l328 -568 -328 -3 c-181 -1 -480 -1 -665 0 l-336 3 306
530 c169 292 318 549 332 573 13 24 27 41 30 38 3 -3 153 -261 333 -573z
m-200 547 c6 -11 8 -20 6 -20 -3 0 -10 9 -16 20 -6 11 -8 20 -6 20 3 0 10 -9
16 -20z m-280 -30 c-6 -11 -13 -20 -16 -20 -2 0 0 9 6 20 6 11 13 20 16 20 2
0 0 -9 -6 -20z m310 -20 c6 -11 8 -20 6 -20 -3 0 -10 9 -16 20 -6 11 -8 20 -6
20 3 0 10 -9 16 -20z m-345 -40 c-9 -16 -18 -30 -21 -30 -2 0 2 14 11 30 9 17
18 30 21 30 2 0 -2 -13 -11 -30z m385 -30 c6 -11 8 -20 6 -20 -3 0 -10 9 -16
20 -6 11 -8 20 -6 20 3 0 10 -9 16 -20z m-420 -30 c-6 -11 -13 -20 -16 -20 -2
0 0 9 6 20 6 11 13 20 16 20 2 0 0 -9 -6 -20z m460 -40 c6 -11 8 -20 6 -20 -3
0 -10 9 -16 20 -6 11 -8 20 -6 20 3 0 10 -9 16 -20z m-500 -30 c-6 -11 -13
-20 -16 -20 -2 0 0 9 6 20 6 11 13 20 16 20 2 0 0 -9 -6 -20z m540 -40 c6 -11
8 -20 6 -20 -3 0 -10 9 -16 20 -6 11 -8 20 -6 20 3 0 10 -9 16 -20z m-580 -30
c-6 -11 -13 -20 -16 -20 -2 0 0 9 6 20 6 11 13 20 16 20 2 0 0 -9 -6 -20z
m610 -20 c6 -11 8 -20 6 -20 -3 0 -10 9 -16 20 -6 11 -8 20 -6 20 3 0 10 -9
16 -20z m-645 -40 c-9 -16 -18 -30 -21 -30 -2 0 2 14 11 30 9 17 18 30 21 30
2 0 -2 -13 -11 -30z m685 -30 c6 -11 8 -20 6 -20 -3 0 -10 9 -16 20 -6 11 -8
20 -6 20 3 0 10 -9 16 -20z m-720 -30 c-6 -11 -13 -20 -16 -20 -2 0 0 9 6 20
6 11 13 20 16 20 2 0 0 -9 -6 -20z m760 -40 c6 -11 8 -20 6 -20 -3 0 -10 9
-16 20 -6 11 -8 20 -6 20 3 0 10 -9 16 -20z m-800 -30 c-6 -11 -13 -20 -16
-20 -2 0 0 9 6 20 6 11 13 20 16 20 2 0 0 -9 -6 -20z m835 -30 c9 -16 13 -30
11 -30 -3 0 -12 14 -21 30 -9 17 -13 30 -11 30 3 0 12 -13 21 -30z m-870 -30
c-9 -16 -18 -30 -21 -30 -2 0 2 14 11 30 9 17 18 30 21 30 2 0 -2 -13 -11 -30z
m905 -30 c6 -11 8 -20 6 -20 -3 0 -10 9 -16 20 -6 11 -8 20 -6 20 3 0 10 -9
16 -20z m-940 -30 c-6 -11 -13 -20 -16 -20 -2 0 0 9 6 20 6 11 13 20 16 20 2
0 0 -9 -6 -20z m980 -40 c6 -11 8 -20 6 -20 -3 0 -10 9 -16 20 -6 11 -8 20 -6
20 3 0 10 -9 16 -20z m-1020 -30 c-6 -11 -13 -20 -16 -20 -2 0 0 9 6 20 6 11
13 20 16 20 2 0 0 -9 -6 -20z m1060 -40 c6 -11 8 -20 6 -20 -3 0 -10 9 -16 20
-6 11 -8 20 -6 20 3 0 10 -9 16 -20z m-1095 -20 c-9 -16 -18 -30 -21 -30 -2 0
2 14 11 30 9 17 18 30 21 30 2 0 -2 -13 -11 -30z m1125 -30 c6 -11 8 -20 6
-20 -3 0 -10 9 -16 20 -6 11 -8 20 -6 20 3 0 10 -9 16 -20z m-1165 -40 c-9
-16 -18 -30 -21 -30 -2 0 2 14 11 30 9 17 18 30 21 30 2 0 -2 -13 -11 -30z
m1205 -30 c6 -11 8 -20 6 -20 -3 0 -10 9 -16 20 -6 11 -8 20 -6 20 3 0 10 -9
16 -20z m-1240 -30 c-6 -11 -13 -20 -16 -20 -2 0 0 9 6 20 6 11 13 20 16 20 2
0 0 -9 -6 -20z m1280 -40 c6 -11 8 -20 6 -20 -3 0 -10 9 -16 20 -6 11 -8 20
-6 20 3 0 10 -9 16 -20z m-1320 -30 c-6 -11 -13 -20 -16 -20 -2 0 0 9 6 20 6
11 13 20 16 20 2 0 0 -9 -6 -20z m1360 -40 c6 -11 8 -20 6 -20 -3 0 -10 9 -16
20 -6 11 -8 20 -6 20 3 0 10 -9 16 -20z m-1395 -20 c-9 -16 -18 -30 -21 -30
-2 0 2 14 11 30 9 17 18 30 21 30 2 0 -2 -13 -11 -30z m1425 -30 c6 -11 8 -20
6 -20 -3 0 -10 9 -16 20 -6 11 -8 20 -6 20 3 0 10 -9 16 -20z m-1465 -40 c-9
-16 -18 -30 -21 -30 -2 0 2 14 11 30 9 17 18 30 21 30 2 0 -2 -13 -11 -30z
m1515 -52 c0 -4 -17 -7 -37 -6 -37 1 -38 1 -5 5 29 4 31 6 21 26 -10 21 -10
21 5 3 9 -11 16 -23 16 -28z m-1480 -4 c0 -2 -16 -4 -35 -4 -19 0 -35 4 -35 8
0 4 16 6 35 4 19 -2 35 -6 35 -8z m1420 -96 c0 -5 -324 -8 -721 -8 -396 0
-718 3 -716 8 7 9 1437 9 1437 0z m-1770 -471 c69 -45 75 -68 78 -294 l3 -203
-40 0 -41 0 0 75 0 75 -185 0 -185 0 0 -75 0 -75 -35 0 -35 0 0 209 c0 200 1
209 23 242 39 59 73 69 238 69 135 0 149 -2 179 -23z m230 -87 l0 -110 58 0
57 0 110 110 110 110 55 0 55 0 -130 -130 -130 -130 130 -130 130 -130 -50 0
-49 0 -116 115 -117 115 -56 0 -57 0 0 -115 0 -115 -40 0 -40 0 0 260 0 260
40 0 40 0 0 -110z m560 -150 l0 -260 -40 0 -40 0 0 260 0 260 40 0 40 0 0
-260z m331 65 l184 -195 3 195 2 195 35 0 35 0 0 -260 0 -260 -34 0 c-31 0
-49 16 -220 200 l-186 200 0 -200 0 -200 -40 0 -40 0 0 260 0 260 39 0 c38 0
45 -6 222 -195z m775 179 c19 -9 44 -31 57 -48 20 -28 22 -45 25 -183 3 -138
2 -155 -18 -193 -36 -71 -69 -80 -302 -80 l-198 0 0 260 0 260 201 0 c165 0
207 -3 235 -16z m584 -2 c19 -9 45 -32 57 -51 21 -32 23 -44 23 -191 0 -146
-2 -159 -22 -190 -43 -63 -74 -71 -245 -68 -165 3 -180 8 -227 72 -19 25 -21
41 -21 184 0 177 8 202 74 241 32 18 52 21 181 21 118 0 151 -3 180 -18z"/>
<path d="M2522 3663 c-316 -545 -602 -1046 -599 -1049 2 -2 292 -3 645 -2
l642 3 -319 553 c-176 305 -321 556 -324 559 -3 2 -23 -26 -45 -64z"/>
<path d="M1165 1965 c-23 -22 -25 -32 -25 -115 l0 -90 185 0 185 0 0 94 c0 90
-1 96 -26 115 -24 19 -40 21 -161 21 -129 0 -135 -1 -158 -25z"/>
<path d="M3042 1803 l3 -188 145 -3 c163 -3 181 -1 210 30 18 20 20 35 20 160
0 134 -1 140 -25 163 -24 25 -27 25 -190 25 l-165 0 2 -187z"/>
<path d="M3656 1969 c-26 -20 -26 -20 -26 -168 0 -195 -9 -186 187 -186 190 0
183 -7 183 187 0 134 -1 140 -25 163 -23 24 -29 25 -158 25 -121 0 -137 -2
-161 -21z"/>
</g>
</svg>
